<?xml version="1.0" encoding="utf-8"?>
<!-- Generator: Adobe Illustrator 25.3.1, SVG Export Plug-In . SVG Version: 6.00 Build 0)  -->
<svg version="1.1" id="Calque_1" xmlns="http://www.w3.org/2000/svg" xmlns:xlink="http://www.w3.org/1999/xlink" x="0px" y="0px"
	 viewBox="0 0 32 32" style="enable-background:new 0 0 32 32;" xml:space="preserve">
<style type="text/css">
	.st0{fill:#F0E8E9;}
</style>
<g id="Layer_2">
	<path class="st0" d="M1,16C1,7.7,7.7,1,16,1s15,6.7,15,15s-6.7,15-15,15S1,24.3,1,16z M3,16c0,7.2,5.8,13,13,13s13-5.8,13-13
		S23.2,3,16,3S3,8.8,3,16z"/>
	<path class="st0" d="M10.4,19.9l5.6-5.6l5.6,5.6c0.4,0.4,1,0.4,1.4,0l0,0c0.4-0.4,0.4-1,0-1.4l-6.4-6.4c-0.4-0.4-0.9-0.4-1.3,0
		L9,18.5c-0.4,0.4-0.4,1,0,1.4l0,0C9.4,20.3,10,20.3,10.4,19.9z"/>
</g>
</svg>
